<mxfile host="app.diagrams.net" agent="Mozilla/5.0 (X11; Linux x86_64) AppleWebKit/537.36 (KHTML, like Gecko) Chrome/131.0.0.0 Safari/537.36" version="26.0.10" pages="2">
  <diagram name="Page-1" id="z_zwelWJsL8vFkYSv9NF">
    <mxGraphModel grid="1" page="1" gridSize="10" guides="1" tooltips="1" connect="1" arrows="1" fold="1" pageScale="1" pageWidth="850" pageHeight="1100" math="0" shadow="0">
      <root>
        <mxCell id="0" />
        <mxCell id="1" parent="0" />
        <mxCell id="H92qBjylOR-r72o3QfGs-1" value="" style="whiteSpace=wrap;html=1;aspect=fixed;" vertex="1" parent="1">
          <mxGeometry x="240" y="70" width="490" height="490" as="geometry" />
        </mxCell>
        <mxCell id="H92qBjylOR-r72o3QfGs-2" value="" style="whiteSpace=wrap;html=1;aspect=fixed;" vertex="1" parent="1">
          <mxGeometry x="880" y="70" width="610" height="610" as="geometry" />
        </mxCell>
        <mxCell id="H92qBjylOR-r72o3QfGs-3" value="" style="whiteSpace=wrap;html=1;aspect=fixed;" vertex="1" parent="1">
          <mxGeometry x="1665" y="320" width="570" height="570" as="geometry" />
        </mxCell>
        <mxCell id="H92qBjylOR-r72o3QfGs-4" value="" style="rounded=0;whiteSpace=wrap;html=1;" vertex="1" parent="1">
          <mxGeometry x="1660" y="70" width="580" height="170" as="geometry" />
        </mxCell>
        <mxCell id="H92qBjylOR-r72o3QfGs-5" value="" style="whiteSpace=wrap;html=1;aspect=fixed;" vertex="1" parent="1">
          <mxGeometry x="940" y="760" width="490" height="490" as="geometry" />
        </mxCell>
        <mxCell id="H92qBjylOR-r72o3QfGs-7" value="" style="rounded=0;whiteSpace=wrap;html=1;" vertex="1" parent="1">
          <mxGeometry x="940" y="1350" width="580" height="270" as="geometry" />
        </mxCell>
        <mxCell id="H92qBjylOR-r72o3QfGs-8" value="" style="rounded=0;whiteSpace=wrap;html=1;" vertex="1" parent="1">
          <mxGeometry x="940" y="1680" width="740" height="200" as="geometry" />
        </mxCell>
      </root>
    </mxGraphModel>
  </diagram>
  <diagram id="G5sxwvE-s8wIUmO8bUkI" name="Page-2">
    <mxGraphModel dx="1592" dy="800" grid="1" gridSize="10" guides="1" tooltips="1" connect="1" arrows="1" fold="1" page="1" pageScale="1" pageWidth="850" pageHeight="1100" background="#ffffff" math="0" shadow="0">
      <root>
        <mxCell id="0" />
        <mxCell id="1" parent="0" />
        <mxCell id="3bUfd0sI0Ha2CJDFYA2p-1" value="" style="whiteSpace=wrap;html=1;aspect=fixed;" vertex="1" parent="1">
          <mxGeometry x="78" y="303" width="290" height="290" as="geometry" />
        </mxCell>
        <mxCell id="3bUfd0sI0Ha2CJDFYA2p-2" value="" style="whiteSpace=wrap;html=1;aspect=fixed;" vertex="1" parent="1">
          <mxGeometry x="80" y="650" width="320" height="320" as="geometry" />
        </mxCell>
        <mxCell id="3bUfd0sI0Ha2CJDFYA2p-3" value="" style="whiteSpace=wrap;html=1;aspect=fixed;" vertex="1" parent="1">
          <mxGeometry x="80" y="1070" width="320" height="320" as="geometry" />
        </mxCell>
        <mxCell id="3bUfd0sI0Ha2CJDFYA2p-4" value="" style="rounded=0;whiteSpace=wrap;html=1;" vertex="1" parent="1">
          <mxGeometry x="80" y="50" width="280" height="130" as="geometry" />
        </mxCell>
        <mxCell id="3bUfd0sI0Ha2CJDFYA2p-5" value="RPC NODE" style="rounded=0;whiteSpace=wrap;html=1;" vertex="1" parent="1">
          <mxGeometry x="156" y="96" width="120" height="60" as="geometry" />
        </mxCell>
        <mxCell id="3bUfd0sI0Ha2CJDFYA2p-6" value="Blockchain Network" style="text;html=1;align=center;verticalAlign=middle;whiteSpace=wrap;rounded=0;" vertex="1" parent="1">
          <mxGeometry x="160" y="55" width="110" height="30" as="geometry" />
        </mxCell>
        <mxCell id="3bUfd0sI0Ha2CJDFYA2p-7" value="Data ingestion layer" style="text;html=1;align=center;verticalAlign=middle;whiteSpace=wrap;rounded=0;" vertex="1" parent="1">
          <mxGeometry x="230" y="320" width="110" height="30" as="geometry" />
        </mxCell>
        <mxCell id="3bUfd0sI0Ha2CJDFYA2p-28" style="edgeStyle=orthogonalEdgeStyle;rounded=0;orthogonalLoop=1;jettySize=auto;html=1;exitX=0.5;exitY=1;exitDx=0;exitDy=0;" edge="1" parent="1" source="3bUfd0sI0Ha2CJDFYA2p-8" target="3bUfd0sI0Ha2CJDFYA2p-9">
          <mxGeometry relative="1" as="geometry" />
        </mxCell>
        <mxCell id="3bUfd0sI0Ha2CJDFYA2p-8" value="Block Listener" style="rounded=0;whiteSpace=wrap;html=1;" vertex="1" parent="1">
          <mxGeometry x="130" y="370" width="180" height="60" as="geometry" />
        </mxCell>
        <mxCell id="3bUfd0sI0Ha2CJDFYA2p-30" style="edgeStyle=orthogonalEdgeStyle;rounded=0;orthogonalLoop=1;jettySize=auto;html=1;" edge="1" parent="1" source="3bUfd0sI0Ha2CJDFYA2p-9" target="3bUfd0sI0Ha2CJDFYA2p-11">
          <mxGeometry relative="1" as="geometry" />
        </mxCell>
        <mxCell id="3bUfd0sI0Ha2CJDFYA2p-9" value="Event Parser" style="rounded=0;whiteSpace=wrap;html=1;" vertex="1" parent="1">
          <mxGeometry x="130" y="490" width="180" height="60" as="geometry" />
        </mxCell>
        <mxCell id="3bUfd0sI0Ha2CJDFYA2p-10" value="Processing Pipeline" style="text;html=1;align=center;verticalAlign=middle;whiteSpace=wrap;rounded=0;" vertex="1" parent="1">
          <mxGeometry x="270" y="670" width="120" height="30" as="geometry" />
        </mxCell>
        <mxCell id="3bUfd0sI0Ha2CJDFYA2p-31" style="edgeStyle=orthogonalEdgeStyle;rounded=0;orthogonalLoop=1;jettySize=auto;html=1;exitX=0.5;exitY=1;exitDx=0;exitDy=0;" edge="1" parent="1" source="3bUfd0sI0Ha2CJDFYA2p-11" target="3bUfd0sI0Ha2CJDFYA2p-12">
          <mxGeometry relative="1" as="geometry" />
        </mxCell>
        <mxCell id="3bUfd0sI0Ha2CJDFYA2p-11" value="Data Transformation" style="rounded=0;whiteSpace=wrap;html=1;" vertex="1" parent="1">
          <mxGeometry x="150" y="730" width="140" height="60" as="geometry" />
        </mxCell>
        <mxCell id="3bUfd0sI0Ha2CJDFYA2p-36" style="edgeStyle=orthogonalEdgeStyle;rounded=0;orthogonalLoop=1;jettySize=auto;html=1;exitX=0.5;exitY=1;exitDx=0;exitDy=0;entryX=0.5;entryY=0;entryDx=0;entryDy=0;" edge="1" parent="1" source="3bUfd0sI0Ha2CJDFYA2p-12" target="3bUfd0sI0Ha2CJDFYA2p-21">
          <mxGeometry relative="1" as="geometry" />
        </mxCell>
        <mxCell id="3bUfd0sI0Ha2CJDFYA2p-12" value="State Management" style="rounded=0;whiteSpace=wrap;html=1;" vertex="1" parent="1">
          <mxGeometry x="160" y="850" width="120" height="60" as="geometry" />
        </mxCell>
        <mxCell id="3bUfd0sI0Ha2CJDFYA2p-13" value="" style="rounded=0;whiteSpace=wrap;html=1;" vertex="1" parent="1">
          <mxGeometry x="773" y="1088" width="460" height="155" as="geometry" />
        </mxCell>
        <mxCell id="3bUfd0sI0Ha2CJDFYA2p-14" value="Storage Layer" style="text;html=1;align=center;verticalAlign=middle;whiteSpace=wrap;rounded=0;" vertex="1" parent="1">
          <mxGeometry x="933" y="1093" width="120" height="30" as="geometry" />
        </mxCell>
        <mxCell id="3bUfd0sI0Ha2CJDFYA2p-15" value="Postgres DB" style="strokeWidth=2;html=1;shape=mxgraph.flowchart.database;whiteSpace=wrap;" vertex="1" parent="1">
          <mxGeometry x="833" y="1135.5" width="110" height="60" as="geometry" />
        </mxCell>
        <mxCell id="3bUfd0sI0Ha2CJDFYA2p-16" value="Redis Cache" style="strokeWidth=2;html=1;shape=mxgraph.flowchart.database;whiteSpace=wrap;" vertex="1" parent="1">
          <mxGeometry x="1073" y="1135.5" width="110" height="60" as="geometry" />
        </mxCell>
        <mxCell id="3bUfd0sI0Ha2CJDFYA2p-17" value="" style="rounded=0;whiteSpace=wrap;html=1;" vertex="1" parent="1">
          <mxGeometry x="773" y="1463" width="620" height="155" as="geometry" />
        </mxCell>
        <mxCell id="3bUfd0sI0Ha2CJDFYA2p-18" value="API Layer" style="text;html=1;align=center;verticalAlign=middle;whiteSpace=wrap;rounded=0;" vertex="1" parent="1">
          <mxGeometry x="1023" y="1473" width="120" height="30" as="geometry" />
        </mxCell>
        <mxCell id="3bUfd0sI0Ha2CJDFYA2p-19" value="Rest API" style="rounded=0;whiteSpace=wrap;html=1;" vertex="1" parent="1">
          <mxGeometry x="823" y="1510.5" width="130" height="60" as="geometry" />
        </mxCell>
        <mxCell id="3bUfd0sI0Ha2CJDFYA2p-20" value="Web Socket" style="rounded=0;whiteSpace=wrap;html=1;" vertex="1" parent="1">
          <mxGeometry x="1203" y="1508" width="120" height="60" as="geometry" />
        </mxCell>
        <mxCell id="3bUfd0sI0Ha2CJDFYA2p-39" style="edgeStyle=orthogonalEdgeStyle;rounded=0;orthogonalLoop=1;jettySize=auto;html=1;" edge="1" parent="1" source="3bUfd0sI0Ha2CJDFYA2p-21" target="3bUfd0sI0Ha2CJDFYA2p-22">
          <mxGeometry relative="1" as="geometry" />
        </mxCell>
        <mxCell id="3bUfd0sI0Ha2CJDFYA2p-21" value="System Metrics" style="rounded=0;whiteSpace=wrap;html=1;" vertex="1" parent="1">
          <mxGeometry x="150" y="1125" width="140" height="80" as="geometry" />
        </mxCell>
        <mxCell id="3bUfd0sI0Ha2CJDFYA2p-22" value="Dashboard" style="rounded=0;whiteSpace=wrap;html=1;" vertex="1" parent="1">
          <mxGeometry x="150" y="1290" width="140" height="80" as="geometry" />
        </mxCell>
        <mxCell id="3bUfd0sI0Ha2CJDFYA2p-23" value="Monitoring" style="text;html=1;align=center;verticalAlign=middle;whiteSpace=wrap;rounded=0;" vertex="1" parent="1">
          <mxGeometry x="270" y="1080" width="120" height="30" as="geometry" />
        </mxCell>
        <mxCell id="3bUfd0sI0Ha2CJDFYA2p-26" style="edgeStyle=orthogonalEdgeStyle;rounded=0;orthogonalLoop=1;jettySize=auto;html=1;" edge="1" parent="1" target="3bUfd0sI0Ha2CJDFYA2p-8">
          <mxGeometry relative="1" as="geometry">
            <mxPoint x="220" y="180" as="sourcePoint" />
            <mxPoint x="219.5999999999999" y="302.9999999999999" as="targetPoint" />
          </mxGeometry>
        </mxCell>
        <mxCell id="3bUfd0sI0Ha2CJDFYA2p-32" style="edgeStyle=orthogonalEdgeStyle;rounded=0;orthogonalLoop=1;jettySize=auto;html=1;entryX=0;entryY=0.5;entryDx=0;entryDy=0;entryPerimeter=0;curved=1;" edge="1" parent="1" source="3bUfd0sI0Ha2CJDFYA2p-11" target="3bUfd0sI0Ha2CJDFYA2p-15">
          <mxGeometry relative="1" as="geometry" />
        </mxCell>
        <mxCell id="3bUfd0sI0Ha2CJDFYA2p-33" style="edgeStyle=orthogonalEdgeStyle;rounded=0;orthogonalLoop=1;jettySize=auto;html=1;exitX=1;exitY=0.25;exitDx=0;exitDy=0;curved=1;" edge="1" parent="1" source="3bUfd0sI0Ha2CJDFYA2p-11" target="3bUfd0sI0Ha2CJDFYA2p-16">
          <mxGeometry relative="1" as="geometry">
            <Array as="points">
              <mxPoint x="290" y="890" />
              <mxPoint x="1100" y="890" />
            </Array>
          </mxGeometry>
        </mxCell>
        <mxCell id="3bUfd0sI0Ha2CJDFYA2p-34" style="edgeStyle=orthogonalEdgeStyle;rounded=0;orthogonalLoop=1;jettySize=auto;html=1;exitX=0.5;exitY=1;exitDx=0;exitDy=0;exitPerimeter=0;entryX=0.5;entryY=0;entryDx=0;entryDy=0;" edge="1" parent="1" source="3bUfd0sI0Ha2CJDFYA2p-15" target="3bUfd0sI0Ha2CJDFYA2p-19">
          <mxGeometry relative="1" as="geometry" />
        </mxCell>
        <mxCell id="3bUfd0sI0Ha2CJDFYA2p-35" style="edgeStyle=orthogonalEdgeStyle;rounded=0;orthogonalLoop=1;jettySize=auto;html=1;exitX=0.5;exitY=1;exitDx=0;exitDy=0;exitPerimeter=0;curved=1;" edge="1" parent="1" source="3bUfd0sI0Ha2CJDFYA2p-16" target="3bUfd0sI0Ha2CJDFYA2p-20">
          <mxGeometry relative="1" as="geometry" />
        </mxCell>
        <mxCell id="3bUfd0sI0Ha2CJDFYA2p-43" style="edgeStyle=orthogonalEdgeStyle;rounded=0;orthogonalLoop=1;jettySize=auto;html=1;exitX=0;exitY=0.5;exitDx=0;exitDy=0;entryX=1;entryY=0.5;entryDx=0;entryDy=0;curved=1;" edge="1" parent="1" source="3bUfd0sI0Ha2CJDFYA2p-41" target="3bUfd0sI0Ha2CJDFYA2p-19">
          <mxGeometry relative="1" as="geometry" />
        </mxCell>
        <mxCell id="3bUfd0sI0Ha2CJDFYA2p-41" value="Web Apps" style="rounded=1;whiteSpace=wrap;html=1;" vertex="1" parent="1">
          <mxGeometry x="1323" y="1373" width="120" height="50" as="geometry" />
        </mxCell>
        <mxCell id="3bUfd0sI0Ha2CJDFYA2p-44" style="edgeStyle=orthogonalEdgeStyle;rounded=0;orthogonalLoop=1;jettySize=auto;html=1;exitX=0.5;exitY=1;exitDx=0;exitDy=0;entryX=1;entryY=0.5;entryDx=0;entryDy=0;" edge="1" parent="1" source="3bUfd0sI0Ha2CJDFYA2p-42" target="3bUfd0sI0Ha2CJDFYA2p-20">
          <mxGeometry relative="1" as="geometry" />
        </mxCell>
        <mxCell id="3bUfd0sI0Ha2CJDFYA2p-42" value="Real Time Apps" style="rounded=1;whiteSpace=wrap;html=1;" vertex="1" parent="1">
          <mxGeometry x="1493" y="1373" width="120" height="50" as="geometry" />
        </mxCell>
        <mxCell id="3bUfd0sI0Ha2CJDFYA2p-49" value="&lt;h1 style=&quot;margin-top: 0px;&quot;&gt;Blockchain Network Layer&lt;/h1&gt;&lt;p&gt;&lt;strong&gt;Purpose&lt;/strong&gt;: Source of raw blockchain data&lt;/p&gt;&lt;p&gt;&lt;strong&gt;Components Needed&lt;/strong&gt;:&lt;/p&gt;&lt;li class=&quot;whitespace-normal break-words&quot;&gt;RPC Node (Alchemy)&lt;/li&gt;&lt;li class=&quot;whitespace-normal break-words&quot;&gt;Network Selection (Ethereum, Polygon, etc.)&amp;nbsp; &amp;nbsp; &amp;nbsp;&amp;nbsp;&lt;/li&gt;&lt;strong style=&quot;background-color: transparent; color: light-dark(rgb(0, 0, 0), rgb(255, 255, 255));&quot;&gt;&lt;div&gt;&lt;strong style=&quot;background-color: transparent; color: light-dark(rgb(0, 0, 0), rgb(255, 255, 255));&quot;&gt;&lt;br&gt;&lt;/strong&gt;&lt;/div&gt;Communication Method:&lt;/strong&gt;&lt;div&gt;&lt;li class=&quot;whitespace-normal break-words&quot;&gt;JSON-RPC calls&lt;/li&gt;&lt;li class=&quot;whitespace-normal break-words&quot;&gt;Websocket subscriptions&lt;/li&gt;&lt;li class=&quot;whitespace-normal break-words&quot;&gt;Polling for new blocks&lt;/li&gt;&lt;li class=&quot;whitespace-normal break-words&quot;&gt;Authentication via API keys&lt;/li&gt;&lt;/div&gt;" style="text;html=1;whiteSpace=wrap;overflow=hidden;rounded=0;" vertex="1" parent="1">
          <mxGeometry x="410" y="50" width="510" height="250" as="geometry" />
        </mxCell>
        <mxCell id="3bUfd0sI0Ha2CJDFYA2p-50" value="&lt;h1 style=&quot;margin-top: 0px;&quot;&gt;Data Ingestion Layer&lt;/h1&gt;&lt;p&gt;&lt;b&gt;&lt;font style=&quot;font-size: 14px;&quot;&gt;Block Listener:&lt;/font&gt;&lt;/b&gt;&lt;/p&gt;&lt;p&gt;&lt;/p&gt;&lt;ul&gt;&lt;li&gt;&lt;span style=&quot;background-color: transparent; color: light-dark(rgb(0, 0, 0), rgb(255, 255, 255));&quot;&gt;Continuously monitors blockchain for new blocks&lt;/span&gt;&lt;/li&gt;&lt;li&gt;&lt;span style=&quot;background-color: transparent; color: light-dark(rgb(0, 0, 0), rgb(255, 255, 255));&quot;&gt;Tracks block numbers, timestamps, transactions&lt;/span&gt;&lt;/li&gt;&lt;li&gt;&lt;span style=&quot;background-color: transparent; color: light-dark(rgb(0, 0, 0), rgb(255, 255, 255));&quot;&gt;Handles network reorganizations&lt;/span&gt;&lt;/li&gt;&lt;/ul&gt;&lt;p&gt;&lt;/p&gt;&lt;strong style=&quot;background-color: transparent; color: light-dark(rgb(0, 0, 0), rgb(255, 255, 255));&quot;&gt;&lt;div&gt;&lt;strong style=&quot;background-color: transparent; color: light-dark(rgb(0, 0, 0), rgb(255, 255, 255));&quot;&gt;&lt;br&gt;&lt;/strong&gt;&lt;/div&gt;&lt;/strong&gt;&lt;strong&gt;Event Parser&lt;/strong&gt;&lt;ul depth=&quot;1&quot; class=&quot;[&amp;amp;:not(:last-child)_ul]:pb-1 [&amp;amp;:not(:last-child)_ol]:pb-1 list-disc space-y-1.5 pl-7&quot;&gt;&lt;li class=&quot;whitespace-normal break-words&quot;&gt;Decodes smart contract events&lt;/li&gt;&lt;li class=&quot;whitespace-normal break-words&quot;&gt;Extracts specific event data&lt;/li&gt;&lt;li class=&quot;whitespace-normal break-words&quot;&gt;Normalizes complex event structures&lt;/li&gt;&lt;/ul&gt;&lt;div&gt;&lt;p class=&quot;whitespace-pre-wrap break-words&quot;&gt;&lt;strong&gt;Communication Method&lt;/strong&gt;:&lt;/p&gt;&lt;ul depth=&quot;0&quot; class=&quot;[&amp;amp;:not(:last-child)_ul]:pb-1 [&amp;amp;:not(:last-child)_ol]:pb-1 list-disc space-y-1.5 pl-7&quot;&gt;&lt;li class=&quot;whitespace-normal break-words&quot;&gt;Message queues (RabbitMQ/Kafka)&lt;/li&gt;&lt;li class=&quot;whitespace-normal break-words&quot;&gt;In-memory queues&lt;/li&gt;&lt;li class=&quot;whitespace-normal break-words&quot;&gt;Publish/Subscribe patterns&lt;/li&gt;&lt;/ul&gt;&lt;/div&gt;" style="text;html=1;whiteSpace=wrap;overflow=hidden;rounded=0;" vertex="1" parent="1">
          <mxGeometry x="420" y="330" width="510" height="320" as="geometry" />
        </mxCell>
        <mxCell id="3bUfd0sI0Ha2CJDFYA2p-51" value="&lt;h1 style=&quot;margin-top: 0px;&quot;&gt;Processing Pipeline&lt;/h1&gt;&lt;h1 style=&quot;margin-top: 0px;&quot;&gt;&lt;strong style=&quot;background-color: transparent; color: light-dark(rgb(0, 0, 0), rgb(255, 255, 255));&quot;&gt;&lt;font style=&quot;font-size: 14px;&quot;&gt;Data Transformation&lt;/font&gt;&lt;/strong&gt;&lt;/h1&gt;&lt;ul&gt;&lt;li&gt;&lt;span style=&quot;background-color: transparent; color: light-dark(rgb(0, 0, 0), rgb(255, 255, 255));&quot;&gt;&lt;font style=&quot;font-size: 14px;&quot;&gt;Converts raw blockchain data to structured forma&lt;/font&gt;&lt;/span&gt;&lt;/li&gt;&lt;li&gt;&lt;span style=&quot;background-color: transparent; color: light-dark(rgb(0, 0, 0), rgb(255, 255, 255));&quot;&gt;&lt;font style=&quot;font-size: 14px;&quot;&gt;Applies business logic&lt;/font&gt;&lt;/span&gt;&lt;/li&gt;&lt;li&gt;&lt;span style=&quot;background-color: transparent; color: light-dark(rgb(0, 0, 0), rgb(255, 255, 255));&quot;&gt;&lt;font style=&quot;font-size: 14px;&quot;&gt;Enriches data with additional metadata&lt;/font&gt;&lt;/span&gt;&lt;/li&gt;&lt;/ul&gt;&lt;div&gt;&lt;strong style=&quot;background-color: transparent; color: light-dark(rgb(0, 0, 0), rgb(255, 255, 255));&quot;&gt;&lt;font style=&quot;font-size: 14px;&quot;&gt;&lt;br&gt;&lt;/font&gt;&lt;/strong&gt;&lt;/div&gt;&lt;div&gt;&lt;strong style=&quot;background-color: transparent; color: light-dark(rgb(0, 0, 0), rgb(255, 255, 255));&quot;&gt;&lt;font style=&quot;font-size: 14px;&quot;&gt;State Management&lt;/font&gt;&lt;/strong&gt;&lt;/div&gt;&lt;div&gt;&lt;ul&gt;&lt;li&gt;&lt;span style=&quot;background-color: transparent; color: light-dark(rgb(0, 0, 0), rgb(255, 255, 255));&quot;&gt;&lt;font style=&quot;font-size: 14px;&quot;&gt;Tracks contract states&lt;/font&gt;&lt;/span&gt;&lt;/li&gt;&lt;li&gt;&lt;span style=&quot;background-color: transparent; color: light-dark(rgb(0, 0, 0), rgb(255, 255, 255));&quot;&gt;&lt;font style=&quot;font-size: 14px;&quot;&gt;Manages account balances&lt;/font&gt;&lt;/span&gt;&lt;/li&gt;&lt;li&gt;&lt;span style=&quot;background-color: transparent; color: light-dark(rgb(0, 0, 0), rgb(255, 255, 255));&quot;&gt;&lt;font style=&quot;font-size: 14px;&quot;&gt;Handles complex state transitions&lt;/font&gt;&lt;/span&gt;&lt;/li&gt;&lt;/ul&gt;&lt;/div&gt;&lt;div&gt;&lt;p class=&quot;whitespace-pre-wrap break-words&quot;&gt;&lt;font style=&quot;font-size: 14px;&quot;&gt;&lt;strong&gt;Communication Method&lt;/strong&gt;:&lt;/font&gt;&lt;/p&gt;&lt;ul depth=&quot;0&quot; class=&quot;[&amp;amp;:not(:last-child)_ul]:pb-1 [&amp;amp;:not(:last-child)_ol]:pb-1 list-disc space-y-1.5 pl-7&quot;&gt;&lt;li class=&quot;whitespace-normal break-words&quot;&gt;&lt;font style=&quot;font-size: 14px;&quot;&gt;In-memory processing&lt;/font&gt;&lt;/li&gt;&lt;li class=&quot;whitespace-normal break-words&quot;&gt;&lt;font style=&quot;font-size: 14px;&quot;&gt;Batch processing&lt;/font&gt;&lt;/li&gt;&lt;li class=&quot;whitespace-normal break-words&quot;&gt;&lt;font style=&quot;font-size: 14px;&quot;&gt;Background worker threads&lt;/font&gt;&lt;/li&gt;&lt;/ul&gt;&lt;/div&gt;" style="text;html=1;whiteSpace=wrap;overflow=hidden;rounded=0;" vertex="1" parent="1">
          <mxGeometry x="1040" y="540" width="510" height="370" as="geometry" />
        </mxCell>
        <mxCell id="3bUfd0sI0Ha2CJDFYA2p-52" value="&lt;h1 style=&quot;margin-top: 0px;&quot;&gt;Storage Layer&lt;/h1&gt;&lt;h1 style=&quot;margin-top: 0px;&quot;&gt;&lt;span style=&quot;background-color: transparent; color: light-dark(rgb(0, 0, 0), rgb(255, 255, 255));&quot;&gt;&lt;font style=&quot;font-size: 14px;&quot;&gt;PostgreSQL&lt;/font&gt;&lt;/span&gt;&lt;/h1&gt;&lt;h1 style=&quot;margin-top: 0px;&quot;&gt;&lt;font style=&quot;font-size: 14px;&quot;&gt;&lt;span style=&quot;background-color: transparent; color: light-dark(rgb(0, 0, 0), rgb(255, 255, 255)); font-weight: normal;&quot;&gt;Primary database for structured data&lt;/span&gt;&lt;br&gt;&lt;span style=&quot;background-color: transparent; color: light-dark(rgb(0, 0, 0), rgb(255, 255, 255)); font-weight: normal;&quot;&gt;ACID compliance&lt;/span&gt;&lt;br&gt;&lt;span style=&quot;background-color: transparent; color: light-dark(rgb(0, 0, 0), rgb(255, 255, 255)); font-weight: normal;&quot;&gt;Complex querying capabilities&lt;/span&gt;&lt;br&gt;&lt;span style=&quot;background-color: transparent; color: light-dark(rgb(0, 0, 0), rgb(255, 255, 255)); font-weight: normal;&quot;&gt;Stores transformed blockchain data&lt;/span&gt;&lt;br&gt;&lt;span style=&quot;background-color: transparent; color: light-dark(rgb(0, 0, 0), rgb(255, 255, 255));&quot;&gt;&lt;font style=&quot;&quot;&gt;Redis&lt;/font&gt;&lt;/span&gt;&lt;/font&gt;&lt;/h1&gt;&lt;h1 style=&quot;margin-top: 0px; line-height: 10%;&quot;&gt;&lt;ul style=&quot;line-height: 90%;&quot;&gt;&lt;li&gt;&lt;span style=&quot;font-size: 14px; background-color: transparent; color: light-dark(rgb(0, 0, 0), rgb(255, 255, 255)); font-weight: normal; line-height: 90%;&quot;&gt;In-memory caching&lt;/span&gt;&lt;/li&gt;&lt;li&gt;&lt;span style=&quot;font-size: 14px; background-color: transparent; color: light-dark(rgb(0, 0, 0), rgb(255, 255, 255)); font-weight: normal; line-height: 90%;&quot;&gt;Real-time data storage&lt;/span&gt;&lt;/li&gt;&lt;li&gt;&lt;span style=&quot;font-size: 14px; background-color: transparent; color: light-dark(rgb(0, 0, 0), rgb(255, 255, 255)); font-weight: normal; line-height: 90%;&quot;&gt;Pub/Sub capabilities&lt;/span&gt;&lt;/li&gt;&lt;li&gt;&lt;span style=&quot;font-size: 14px; background-color: transparent; color: light-dark(rgb(0, 0, 0), rgb(255, 255, 255)); font-weight: normal; line-height: 90%;&quot;&gt;Session management&lt;/span&gt;&lt;/li&gt;&lt;/ul&gt;&lt;/h1&gt;&lt;h1 style=&quot;margin-top: 0px;&quot;&gt;&lt;p class=&quot;whitespace-pre-wrap break-words&quot;&gt;&lt;font style=&quot;font-size: 14px;&quot;&gt;Communication Method:&lt;/font&gt;&lt;/p&gt;&lt;ul style=&quot;line-height: 70%;&quot; depth=&quot;0&quot; class=&quot;[&amp;amp;:not(:last-child)_ul]:pb-1 [&amp;amp;:not(:last-child)_ol]:pb-1 list-disc space-y-1.5 pl-7&quot;&gt;&lt;li class=&quot;whitespace-normal break-words&quot;&gt;&lt;span style=&quot;font-weight: normal;&quot;&gt;&lt;font style=&quot;font-size: 14px; line-height: 70%;&quot;&gt;Connection pools&lt;/font&gt;&lt;/span&gt;&lt;/li&gt;&lt;li class=&quot;whitespace-normal break-words&quot;&gt;&lt;span style=&quot;font-weight: normal;&quot;&gt;&lt;font style=&quot;font-size: 14px; line-height: 70%;&quot;&gt;ORM (Object-Relational Mapping)&lt;/font&gt;&lt;/span&gt;&lt;/li&gt;&lt;li class=&quot;whitespace-normal break-words&quot;&gt;&lt;span style=&quot;font-weight: normal;&quot;&gt;&lt;font style=&quot;font-size: 14px; line-height: 70%;&quot;&gt;Batch inserts&lt;/font&gt;&lt;/span&gt;&lt;/li&gt;&lt;li class=&quot;whitespace-normal break-words&quot;&gt;&lt;span style=&quot;font-weight: normal;&quot;&gt;&lt;font style=&quot;font-size: 14px; line-height: 70%;&quot;&gt;Caching strategies&lt;/font&gt;&lt;/span&gt;&lt;/li&gt;&lt;/ul&gt;&lt;/h1&gt;" style="text;html=1;whiteSpace=wrap;overflow=hidden;rounded=0;" vertex="1" parent="1">
          <mxGeometry x="1430" y="780" width="677" height="500" as="geometry" />
        </mxCell>
        <UserObject label="&lt;p class=&quot;whitespace-pre-wrap break-words&quot;&gt;&lt;strong&gt;&lt;font style=&quot;font-size: 18px;&quot;&gt;API Layer&lt;/font&gt;&lt;/strong&gt;&lt;/p&gt;&lt;ul class=&quot;[&amp;amp;:not(:last-child)_ul]:pb-1 [&amp;amp;:not(:last-child)_ol]:pb-1 list-disc space-y-1.5 pl-7&quot; depth=&quot;0&quot;&gt;&lt;li class=&quot;whitespace-normal break-words&quot;&gt;&lt;strong&gt;REST API&lt;/strong&gt;&lt;br&gt;&lt;ul class=&quot;[&amp;amp;:not(:last-child)_ul]:pb-1 [&amp;amp;:not(:last-child)_ol]:pb-1 list-disc space-y-1.5 pl-7&quot; depth=&quot;1&quot;&gt;&lt;br&gt;&lt;/ul&gt;&lt;/li&gt;&lt;li&gt;&lt;span style=&quot;background-color: transparent; color: light-dark(rgb(0, 0, 0), rgb(255, 255, 255));&quot;&gt;Standard HTTP endpoints&lt;/span&gt;&lt;/li&gt;&lt;li&gt;CRUD operations&lt;/li&gt;&lt;li&gt;Supports complex querying&lt;/li&gt;&lt;li&gt;Pagination and filtering&lt;/li&gt;&lt;br&gt;&lt;li class=&quot;whitespace-normal break-words&quot;&gt;&lt;strong&gt;WebSocket&lt;/strong&gt;&lt;br&gt;&lt;ul class=&quot;[&amp;amp;:not(:last-child)_ul]:pb-1 [&amp;amp;:not(:last-child)_ol]:pb-1 list-disc space-y-1.5 pl-7&quot; depth=&quot;1&quot;&gt;&lt;br&gt;&lt;/ul&gt;&lt;/li&gt;&lt;li&gt;&lt;span style=&quot;background-color: transparent; color: light-dark(rgb(0, 0, 0), rgb(255, 255, 255));&quot;&gt;Real-time data streaming&lt;/span&gt;&lt;/li&gt;&lt;li&gt;&lt;span style=&quot;background-color: transparent; color: light-dark(rgb(0, 0, 0), rgb(255, 255, 255));&quot;&gt;Live updates&lt;/span&gt;&lt;/li&gt;&lt;li&gt;&lt;span style=&quot;background-color: transparent; color: light-dark(rgb(0, 0, 0), rgb(255, 255, 255));&quot;&gt;Event notifications&lt;/span&gt;&lt;/li&gt;&lt;/ul&gt;&lt;p class=&quot;whitespace-pre-wrap break-words&quot;&gt;&lt;strong&gt;Communication Method&lt;/strong&gt;:&lt;/p&gt;&lt;ul class=&quot;[&amp;amp;:not(:last-child)_ul]:pb-1 [&amp;amp;:not(:last-child)_ol]:pb-1 list-disc space-y-1.5 pl-7&quot; depth=&quot;0&quot;&gt;&lt;br&gt;&lt;li class=&quot;whitespace-normal break-words&quot;&gt;Express.js/Fastify for REST&lt;/li&gt;&lt;br&gt;&lt;li class=&quot;whitespace-normal break-words&quot;&gt;Socket.io for WebSockets&lt;/li&gt;&lt;br&gt;&lt;li class=&quot;whitespace-normal break-words&quot;&gt;Authentication middleware&lt;/li&gt;&lt;br&gt;&lt;li class=&quot;whitespace-normal break-words&quot;&gt;Rate limiting&lt;/li&gt;&lt;/ul&gt;" link="&lt;p class=&quot;whitespace-pre-wrap break-words&quot;&gt;&lt;strong&gt;API Layer&lt;/strong&gt;&lt;/p&gt;&#xa;&lt;ul class=&quot;[&amp;amp;:not(:last-child)_ul]:pb-1 [&amp;amp;:not(:last-child)_ol]:pb-1 list-disc space-y-1.5 pl-7&quot; depth=&quot;0&quot;&gt;&#xa;&lt;li class=&quot;whitespace-normal break-words&quot;&gt;&lt;strong&gt;REST API&lt;/strong&gt;&#xa;&lt;ul class=&quot;[&amp;amp;:not(:last-child)_ul]:pb-1 [&amp;amp;:not(:last-child)_ol]:pb-1 list-disc space-y-1.5 pl-7&quot; depth=&quot;1&quot;&gt;&#xa;&lt;li class=&quot;whitespace-normal break-words&quot;&gt;Standard HTTP endpoints&lt;/li&gt;&#xa;&lt;li class=&quot;whitespace-normal break-words&quot;&gt;CRUD operations&lt;/li&gt;&#xa;&lt;li class=&quot;whitespace-normal break-words&quot;&gt;Supports complex querying&lt;/li&gt;&#xa;&lt;li class=&quot;whitespace-normal break-words&quot;&gt;Pagination and filtering&lt;/li&gt;&#xa;&lt;/ul&gt;&#xa;&lt;/li&gt;&#xa;&lt;li class=&quot;whitespace-normal break-words&quot;&gt;&lt;strong&gt;WebSocket&lt;/strong&gt;&#xa;&lt;ul class=&quot;[&amp;amp;:not(:last-child)_ul]:pb-1 [&amp;amp;:not(:last-child)_ol]:pb-1 list-disc space-y-1.5 pl-7&quot; depth=&quot;1&quot;&gt;&#xa;&lt;li class=&quot;whitespace-normal break-words&quot;&gt;Real-time data streaming&lt;/li&gt;&#xa;&lt;li class=&quot;whitespace-normal break-words&quot;&gt;Live updates&lt;/li&gt;&#xa;&lt;li class=&quot;whitespace-normal break-words&quot;&gt;Event notifications&lt;/li&gt;&#xa;&lt;/ul&gt;&#xa;&lt;/li&gt;&#xa;&lt;/ul&gt;&#xa;&lt;p class=&quot;whitespace-pre-wrap break-words&quot;&gt;&lt;strong&gt;Communication Method&lt;/strong&gt;:&lt;/p&gt;&#xa;&lt;ul class=&quot;[&amp;amp;:not(:last-child)_ul]:pb-1 [&amp;amp;:not(:last-child)_ol]:pb-1 list-disc space-y-1.5 pl-7&quot; depth=&quot;0&quot;&gt;&#xa;&lt;li class=&quot;whitespace-normal break-words&quot;&gt;Express.js/Fastify for REST&lt;/li&gt;&#xa;&lt;li class=&quot;whitespace-normal break-words&quot;&gt;Socket.io for WebSockets&lt;/li&gt;&#xa;&lt;li class=&quot;whitespace-normal break-words&quot;&gt;Authentication middleware&lt;/li&gt;&#xa;&lt;li class=&quot;whitespace-normal break-words&quot;&gt;Rate limiting&lt;/li&gt;&lt;/ul&gt;" id="3bUfd0sI0Ha2CJDFYA2p-53">
          <mxCell style="text;whiteSpace=wrap;html=1;" vertex="1" parent="1">
            <mxGeometry x="910" y="1650" width="630" height="400" as="geometry" />
          </mxCell>
        </UserObject>
        <mxCell id="3bUfd0sI0Ha2CJDFYA2p-54" value="&lt;font style=&quot;font-size: 18px;&quot;&gt;&lt;b&gt;Monitoring Layer&lt;/b&gt;&lt;/font&gt;&lt;br&gt;&lt;br&gt;&lt;b&gt;&lt;font style=&quot;font-size: 14px;&quot;&gt;Basic Metrics&lt;/font&gt;&lt;/b&gt;&lt;br&gt;&lt;ul&gt;&lt;li&gt;Track processing time&lt;/li&gt;&lt;li&gt;Monitor queue depths&lt;/li&gt;&lt;li&gt;Log error rates&lt;/li&gt;&lt;li&gt;Performance tracking&lt;/li&gt;&lt;/ul&gt;&lt;b&gt;Communication Method:&lt;/b&gt;&lt;ul&gt;&lt;li&gt;Prometheus for metrics&lt;/li&gt;&lt;li&gt;Grafana for dashboards&lt;/li&gt;&lt;li&gt;Logging frameworks&lt;/li&gt;&lt;/ul&gt;" style="text;whiteSpace=wrap;html=1;" vertex="1" parent="1">
          <mxGeometry x="80" y="1415.5" width="340" height="224.5" as="geometry" />
        </mxCell>
        <UserObject label="&lt;b&gt;&lt;font style=&quot;font-size: 26px;&quot;&gt;Tech Stack:&lt;/font&gt;&lt;/b&gt;&lt;br&gt;&lt;br&gt;&lt;font style=&quot;font-size: 18px;&quot;&gt;Language: Golang&lt;br&gt;Databases: PostgreSQL, Redis&lt;br&gt;Messaging: RabbitMQ/Kafka&lt;br&gt;Monitoring: Prometheus, Grafana&lt;br&gt;Web Frameworks: Express, Socket.io&lt;br&gt;Web3 Libraries: ethers.js&lt;/font&gt;" link="Recommended Tech Stack:&#xa;&#xa;Language: Node.js/TypeScript&#xa;Databases: PostgreSQL, Redis&#xa;Messaging: RabbitMQ/Kafka&#xa;Monitoring: Prometheus, Grafana&#xa;Web Frameworks: Express, Socket.io&#xa;Web3 Libraries: web3.js, ethers.js" id="3bUfd0sI0Ha2CJDFYA2p-55">
          <mxCell style="text;whiteSpace=wrap;html=1;" vertex="1" parent="1">
            <mxGeometry x="1760" y="1263" width="470" height="210" as="geometry" />
          </mxCell>
        </UserObject>
        <mxCell id="3bUfd0sI0Ha2CJDFYA2p-57" value="&lt;h1 style=&quot;margin-top: 0px;&quot;&gt;Setup&lt;/h1&gt;&lt;ol style=&quot;box-sizing: border-box; border: 0px solid rgb(229, 231, 235); --tw-border-spacing-x: 0; --tw-border-spacing-y: 0; --tw-translate-x: 0; --tw-translate-y: 0; --tw-rotate: 0; --tw-skew-x: 0; --tw-skew-y: 0; --tw-scale-x: 1; --tw-scale-y: 1; --tw-pan-x: ; --tw-pan-y: ; --tw-pinch-zoom: ; --tw-scroll-snap-strictness: proximity; --tw-gradient-from-position: ; --tw-gradient-via-position: ; --tw-gradient-to-position: ; --tw-ordinal: ; --tw-slashed-zero: ; --tw-numeric-figure: ; --tw-numeric-spacing: ; --tw-numeric-fraction: ; --tw-ring-inset: ; --tw-ring-offset-width: 0px; --tw-ring-offset-color: #fff; --tw-ring-color: rgba(59,130,246,.5); --tw-ring-offset-shadow: 0 0 #0000; --tw-ring-shadow: 0 0 #0000; --tw-shadow: 0 0 #0000; --tw-shadow-colored: 0 0 #0000; --tw-blur: ; --tw-brightness: ; --tw-contrast: ; --tw-grayscale: ; --tw-hue-rotate: ; --tw-invert: ; --tw-saturate: ; --tw-sepia: ; --tw-drop-shadow: ; --tw-backdrop-blur: ; --tw-backdrop-brightness: ; --tw-backdrop-contrast: ; --tw-backdrop-grayscale: ; --tw-backdrop-hue-rotate: ; --tw-backdrop-invert: ; --tw-backdrop-opacity: ; --tw-backdrop-saturate: ; --tw-backdrop-sepia: ; list-style-position: initial; list-style-image: initial; margin: 1.33333em 0px; padding: 0px 0px 0px 1.55556em; color: rgb(17, 17, 17); font-family: __Inter_a184c8, ui-sans-serif, system-ui, -apple-system, BlinkMacSystemFont, &amp;quot;Segoe UI&amp;quot;, Roboto, &amp;quot;Helvetica Neue&amp;quot;, Arial, &amp;quot;Noto Sans&amp;quot;, sans-serif, &amp;quot;Apple Color Emoji&amp;quot;, &amp;quot;Segoe UI Emoji&amp;quot;, &amp;quot;Segoe UI Symbol&amp;quot;, &amp;quot;Noto Color Emoji&amp;quot;; font-size: 18px; background-color: rgb(255, 255, 255);&quot;&gt;&lt;li style=&quot;box-sizing: border-box; border: 0px solid rgb(229, 231, 235); --tw-border-spacing-x: 0; --tw-border-spacing-y: 0; --tw-translate-x: 0; --tw-translate-y: 0; --tw-rotate: 0; --tw-skew-x: 0; --tw-skew-y: 0; --tw-scale-x: 1; --tw-scale-y: 1; --tw-pan-x: ; --tw-pan-y: ; --tw-pinch-zoom: ; --tw-scroll-snap-strictness: proximity; --tw-gradient-from-position: ; --tw-gradient-via-position: ; --tw-gradient-to-position: ; --tw-ordinal: ; --tw-slashed-zero: ; --tw-numeric-figure: ; --tw-numeric-spacing: ; --tw-numeric-fraction: ; --tw-ring-inset: ; --tw-ring-offset-width: 0px; --tw-ring-offset-color: #fff; --tw-ring-color: rgba(59,130,246,.5); --tw-ring-offset-shadow: 0 0 #0000; --tw-ring-shadow: 0 0 #0000; --tw-shadow: 0 0 #0000; --tw-shadow-colored: 0 0 #0000; --tw-blur: ; --tw-brightness: ; --tw-contrast: ; --tw-grayscale: ; --tw-hue-rotate: ; --tw-invert: ; --tw-saturate: ; --tw-sepia: ; --tw-drop-shadow: ; --tw-backdrop-blur: ; --tw-backdrop-brightness: ; --tw-backdrop-contrast: ; --tw-backdrop-grayscale: ; --tw-backdrop-hue-rotate: ; --tw-backdrop-invert: ; --tw-backdrop-opacity: ; --tw-backdrop-saturate: ; --tw-backdrop-sepia: ; margin-top: 0.666667em; margin-bottom: 0.666667em; padding-left: 0.444444em;&quot;&gt;&lt;p style=&quot;box-sizing: border-box; border: 0px solid rgb(229, 231, 235); --tw-border-spacing-x: 0; --tw-border-spacing-y: 0; --tw-translate-x: 0; --tw-translate-y: 0; --tw-rotate: 0; --tw-skew-x: 0; --tw-skew-y: 0; --tw-scale-x: 1; --tw-scale-y: 1; --tw-pan-x: ; --tw-pan-y: ; --tw-pinch-zoom: ; --tw-scroll-snap-strictness: proximity; --tw-gradient-from-position: ; --tw-gradient-via-position: ; --tw-gradient-to-position: ; --tw-ordinal: ; --tw-slashed-zero: ; --tw-numeric-figure: ; --tw-numeric-spacing: ; --tw-numeric-fraction: ; --tw-ring-inset: ; --tw-ring-offset-width: 0px; --tw-ring-offset-color: #fff; --tw-ring-color: rgba(59,130,246,.5); --tw-ring-offset-shadow: 0 0 #0000; --tw-ring-shadow: 0 0 #0000; --tw-shadow: 0 0 #0000; --tw-shadow-colored: 0 0 #0000; --tw-blur: ; --tw-brightness: ; --tw-contrast: ; --tw-grayscale: ; --tw-hue-rotate: ; --tw-invert: ; --tw-saturate: ; --tw-sepia: ; --tw-drop-shadow: ; --tw-backdrop-blur: ; --tw-backdrop-brightness: ; --tw-backdrop-contrast: ; --tw-backdrop-grayscale: ; --tw-backdrop-hue-rotate: ; --tw-backdrop-invert: ; --tw-backdrop-opacity: ; --tw-backdrop-saturate: ; --tw-backdrop-sepia: ; margin-top: 0px; margin-right: 0px !important; margin-bottom: 0px; margin-left: 0px !important;&quot;&gt;An RPC to connect to the blockchain using alchemy&lt;/p&gt;&lt;/li&gt;&lt;li style=&quot;box-sizing: border-box; border: 0px solid rgb(229, 231, 235); --tw-border-spacing-x: 0; --tw-border-spacing-y: 0; --tw-translate-x: 0; --tw-translate-y: 0; --tw-rotate: 0; --tw-skew-x: 0; --tw-skew-y: 0; --tw-scale-x: 1; --tw-scale-y: 1; --tw-pan-x: ; --tw-pan-y: ; --tw-pinch-zoom: ; --tw-scroll-snap-strictness: proximity; --tw-gradient-from-position: ; --tw-gradient-via-position: ; --tw-gradient-to-position: ; --tw-ordinal: ; --tw-slashed-zero: ; --tw-numeric-figure: ; --tw-numeric-spacing: ; --tw-numeric-fraction: ; --tw-ring-inset: ; --tw-ring-offset-width: 0px; --tw-ring-offset-color: #fff; --tw-ring-color: rgba(59,130,246,.5); --tw-ring-offset-shadow: 0 0 #0000; --tw-ring-shadow: 0 0 #0000; --tw-shadow: 0 0 #0000; --tw-shadow-colored: 0 0 #0000; --tw-blur: ; --tw-brightness: ; --tw-contrast: ; --tw-grayscale: ; --tw-hue-rotate: ; --tw-invert: ; --tw-saturate: ; --tw-sepia: ; --tw-drop-shadow: ; --tw-backdrop-blur: ; --tw-backdrop-brightness: ; --tw-backdrop-contrast: ; --tw-backdrop-grayscale: ; --tw-backdrop-hue-rotate: ; --tw-backdrop-invert: ; --tw-backdrop-opacity: ; --tw-backdrop-saturate: ; --tw-backdrop-sepia: ; margin-top: 0.666667em; margin-bottom: 0.666667em; padding-left: 0.444444em;&quot;&gt;&lt;p style=&quot;box-sizing: border-box; border: 0px solid rgb(229, 231, 235); --tw-border-spacing-x: 0; --tw-border-spacing-y: 0; --tw-translate-x: 0; --tw-translate-y: 0; --tw-rotate: 0; --tw-skew-x: 0; --tw-skew-y: 0; --tw-scale-x: 1; --tw-scale-y: 1; --tw-pan-x: ; --tw-pan-y: ; --tw-pinch-zoom: ; --tw-scroll-snap-strictness: proximity; --tw-gradient-from-position: ; --tw-gradient-via-position: ; --tw-gradient-to-position: ; --tw-ordinal: ; --tw-slashed-zero: ; --tw-numeric-figure: ; --tw-numeric-spacing: ; --tw-numeric-fraction: ; --tw-ring-inset: ; --tw-ring-offset-width: 0px; --tw-ring-offset-color: #fff; --tw-ring-color: rgba(59,130,246,.5); --tw-ring-offset-shadow: 0 0 #0000; --tw-ring-shadow: 0 0 #0000; --tw-shadow: 0 0 #0000; --tw-shadow-colored: 0 0 #0000; --tw-blur: ; --tw-brightness: ; --tw-contrast: ; --tw-grayscale: ; --tw-hue-rotate: ; --tw-invert: ; --tw-saturate: ; --tw-sepia: ; --tw-drop-shadow: ; --tw-backdrop-blur: ; --tw-backdrop-brightness: ; --tw-backdrop-contrast: ; --tw-backdrop-grayscale: ; --tw-backdrop-hue-rotate: ; --tw-backdrop-invert: ; --tw-backdrop-opacity: ; --tw-backdrop-saturate: ; --tw-backdrop-sepia: ; margin-top: 0px; margin-right: 0px !important; margin-bottom: 0px; margin-left: 0px !important;&quot;&gt;A Docker container running Kafka to store raw data&lt;/p&gt;&lt;/li&gt;&lt;li style=&quot;box-sizing: border-box; border: 0px solid rgb(229, 231, 235); --tw-border-spacing-x: 0; --tw-border-spacing-y: 0; --tw-translate-x: 0; --tw-translate-y: 0; --tw-rotate: 0; --tw-skew-x: 0; --tw-skew-y: 0; --tw-scale-x: 1; --tw-scale-y: 1; --tw-pan-x: ; --tw-pan-y: ; --tw-pinch-zoom: ; --tw-scroll-snap-strictness: proximity; --tw-gradient-from-position: ; --tw-gradient-via-position: ; --tw-gradient-to-position: ; --tw-ordinal: ; --tw-slashed-zero: ; --tw-numeric-figure: ; --tw-numeric-spacing: ; --tw-numeric-fraction: ; --tw-ring-inset: ; --tw-ring-offset-width: 0px; --tw-ring-offset-color: #fff; --tw-ring-color: rgba(59,130,246,.5); --tw-ring-offset-shadow: 0 0 #0000; --tw-ring-shadow: 0 0 #0000; --tw-shadow: 0 0 #0000; --tw-shadow-colored: 0 0 #0000; --tw-blur: ; --tw-brightness: ; --tw-contrast: ; --tw-grayscale: ; --tw-hue-rotate: ; --tw-invert: ; --tw-saturate: ; --tw-sepia: ; --tw-drop-shadow: ; --tw-backdrop-blur: ; --tw-backdrop-brightness: ; --tw-backdrop-contrast: ; --tw-backdrop-grayscale: ; --tw-backdrop-hue-rotate: ; --tw-backdrop-invert: ; --tw-backdrop-opacity: ; --tw-backdrop-saturate: ; --tw-backdrop-sepia: ; margin-top: 0.666667em; margin-bottom: 0.666667em; padding-left: 0.444444em;&quot;&gt;&lt;p style=&quot;box-sizing: border-box; border: 0px solid rgb(229, 231, 235); --tw-border-spacing-x: 0; --tw-border-spacing-y: 0; --tw-translate-x: 0; --tw-translate-y: 0; --tw-rotate: 0; --tw-skew-x: 0; --tw-skew-y: 0; --tw-scale-x: 1; --tw-scale-y: 1; --tw-pan-x: ; --tw-pan-y: ; --tw-pinch-zoom: ; --tw-scroll-snap-strictness: proximity; --tw-gradient-from-position: ; --tw-gradient-via-position: ; --tw-gradient-to-position: ; --tw-ordinal: ; --tw-slashed-zero: ; --tw-numeric-figure: ; --tw-numeric-spacing: ; --tw-numeric-fraction: ; --tw-ring-inset: ; --tw-ring-offset-width: 0px; --tw-ring-offset-color: #fff; --tw-ring-color: rgba(59,130,246,.5); --tw-ring-offset-shadow: 0 0 #0000; --tw-ring-shadow: 0 0 #0000; --tw-shadow: 0 0 #0000; --tw-shadow-colored: 0 0 #0000; --tw-blur: ; --tw-brightness: ; --tw-contrast: ; --tw-grayscale: ; --tw-hue-rotate: ; --tw-invert: ; --tw-saturate: ; --tw-sepia: ; --tw-drop-shadow: ; --tw-backdrop-blur: ; --tw-backdrop-brightness: ; --tw-backdrop-contrast: ; --tw-backdrop-grayscale: ; --tw-backdrop-hue-rotate: ; --tw-backdrop-invert: ; --tw-backdrop-opacity: ; --tw-backdrop-saturate: ; --tw-backdrop-sepia: ; margin-top: 0px; margin-right: 0px !important; margin-bottom: 0px; margin-left: 0px !important;&quot;&gt;A Postgres database for storing the most recent blocks.&lt;/p&gt;&lt;/li&gt;&lt;/ol&gt;" style="text;html=1;whiteSpace=wrap;overflow=hidden;rounded=0;" vertex="1" parent="1">
          <mxGeometry x="1760" y="1498" width="670" height="212" as="geometry" />
        </mxCell>
        <mxCell id="3bUfd0sI0Ha2CJDFYA2p-58" value="&lt;h1 style=&quot;margin-top: 0px;&quot;&gt;Project Folder Structure&lt;/h1&gt;&lt;p&gt;&lt;font style=&quot;font-size: 16px;&quot;&gt;&lt;b&gt;/src&amp;nbsp;&lt;/b&gt;&lt;/font&gt;&lt;/p&gt;&lt;p&gt;&lt;font style=&quot;font-size: 14px;&quot;&gt;&lt;b&gt;&amp;nbsp;/blockchain&lt;/b&gt;&lt;br&gt;    - listener.ts      (Block/Event listening)&lt;br&gt;    - decoder.ts       (ABI/Event decoding)&lt;/font&gt;&lt;/p&gt;&lt;p&gt;&lt;font style=&quot;font-size: 14px;&quot;&gt;&amp;nbsp;&lt;/font&gt;&lt;/p&gt;&lt;p&gt;&lt;font style=&quot;font-size: 14px;&quot;&gt;&lt;b&gt;/queue&lt;/b&gt;&lt;br&gt;    - producer.ts      (Kafka producer)&lt;br&gt;    - consumer.ts      (Kafka consumer)&amp;nbsp;&lt;/font&gt;&lt;/p&gt;&lt;p&gt;&lt;font style=&quot;font-size: 14px;&quot;&gt;&lt;br&gt;&lt;/font&gt;&lt;/p&gt;&lt;p&gt;&lt;font style=&quot;font-size: 14px;&quot;&gt;&lt;b&gt;  /processor&lt;/b&gt;&lt;br&gt;    - transformer.ts   (Data transformation)&lt;br&gt;    - stateManager.ts  (State management)&amp;nbsp;&lt;/font&gt;&lt;/p&gt;&lt;p&gt;&lt;font style=&quot;font-size: 14px;&quot;&gt;&lt;b&gt;  /storage&lt;/b&gt;&lt;br&gt;    - database.ts      (PostgreSQL)&lt;br&gt;    - cache.ts         (Redis)&amp;nbsp;&lt;/font&gt;&lt;/p&gt;&lt;p&gt;&lt;font style=&quot;font-size: 14px;&quot;&gt;&lt;b&gt;  /api&lt;/b&gt;&lt;br&gt;    - rest.ts          (REST endpoints)&lt;br&gt;    - websocket.ts     (WebSocket server)&lt;/font&gt;&lt;/p&gt;&lt;p&gt;&lt;font style=&quot;font-size: 14px;&quot;&gt;&lt;b&gt;/monitoring&lt;/b&gt;&lt;br&gt;    - metrics.ts       (Prometheus metrics)&amp;nbsp;&lt;/font&gt;&lt;/p&gt;&lt;p&gt;&lt;font style=&quot;font-size: 14px;&quot;&gt;&lt;b&gt;  /types&lt;/b&gt;&lt;br&gt;    - interfaces.ts    (TypeScript types)&lt;br&gt;  - index.ts          (Main application)&lt;/font&gt;&lt;/p&gt;" style="text;html=1;whiteSpace=wrap;overflow=hidden;rounded=0;" vertex="1" parent="1">
          <mxGeometry x="1780" y="1730" width="580" height="560" as="geometry" />
        </mxCell>
      </root>
    </mxGraphModel>
  </diagram>
</mxfile>
